<svg width="54" height="48" viewBox="0 0 54 48" fill="none" xmlns="http://www.w3.org/2000/svg">
<path fill-rule="evenodd" clip-rule="evenodd" d="M2.5354 10.6853H5.07146V8.02246H2.5354V10.6853Z" fill="#E8B714"/>
<path fill-rule="evenodd" clip-rule="evenodd" d="M2.5354 21.337H5.07146V18.6741H2.5354V21.337Z" fill="#E8B714"/>
<path fill-rule="evenodd" clip-rule="evenodd" d="M0 18.6739H2.53606V10.6853H0V18.6739Z" fill="#E8B714"/>
<path fill-rule="evenodd" clip-rule="evenodd" d="M5.07104 8.02177H10.1437V5.35889H5.07104V8.02177Z" fill="#E8B714"/>
<path fill-rule="evenodd" clip-rule="evenodd" d="M5.07104 13.3482H10.1437V10.6853H5.07104V13.3482Z" fill="#E8B714"/>
<path fill-rule="evenodd" clip-rule="evenodd" d="M5.07104 18.6748H10.1437V16.012H5.07104V18.6748Z" fill="#E8B714"/>
<path fill-rule="evenodd" clip-rule="evenodd" d="M5.07104 18.6742H7.60764V13.3484H5.07104V18.6742Z" fill="#E8B714"/>
<path fill-rule="evenodd" clip-rule="evenodd" d="M5.07104 10.6853H10.1437V8.02246H5.07104V10.6853Z" fill="#FFD91D"/>
<path fill-rule="evenodd" clip-rule="evenodd" d="M5.07104 21.337H12.6798V18.6741H5.07104V21.337Z" fill="#FFD91D"/>
<path fill-rule="evenodd" clip-rule="evenodd" d="M2.5354 18.6739H5.07146V10.6853H2.5354V18.6739Z" fill="#FFD91D"/>
<path fill-rule="evenodd" clip-rule="evenodd" d="M38.0403 13.3488H40.5764V2.69727H38.0403V13.3488Z" fill="#FFD91D"/>
<path fill-rule="evenodd" clip-rule="evenodd" d="M5.07104 24.0005H12.6798V21.3376H5.07104V24.0005Z" fill="#E8B714"/>
<path fill-rule="evenodd" clip-rule="evenodd" d="M48.1875 10.6853H50.7241V8.02246H48.1875V10.6853Z" fill="#E8B714"/>
<path fill-rule="evenodd" clip-rule="evenodd" d="M48.1875 21.337H50.7241V18.6741H48.1875V21.337Z" fill="#E8B714"/>
<path fill-rule="evenodd" clip-rule="evenodd" d="M50.7229 18.6739H53.259V10.6853H50.7229V18.6739Z" fill="#E8B714"/>
<path fill-rule="evenodd" clip-rule="evenodd" d="M43.1138 8.02177H48.1859V5.35889H43.1138V8.02177Z" fill="#E8B714"/>
<path fill-rule="evenodd" clip-rule="evenodd" d="M43.1138 13.3482H48.1859V10.6853H43.1138V13.3482Z" fill="#E8B714"/>
<path fill-rule="evenodd" clip-rule="evenodd" d="M43.1138 18.6748H48.1859V16.012H43.1138V18.6748Z" fill="#E8B714"/>
<path fill-rule="evenodd" clip-rule="evenodd" d="M45.6494 18.6742H48.1855V13.3484H45.6494V18.6742Z" fill="#E8B714"/>
<path fill-rule="evenodd" clip-rule="evenodd" d="M43.1138 10.6853H48.1859V8.02246H43.1138V10.6853Z" fill="#FFD91D"/>
<path fill-rule="evenodd" clip-rule="evenodd" d="M40.5784 21.337H48.1865V18.6741H40.5784V21.337Z" fill="#FFD91D"/>
<path fill-rule="evenodd" clip-rule="evenodd" d="M48.1875 18.6739H50.7241V10.6853H48.1875V18.6739Z" fill="#FFD91D"/>
<path fill-rule="evenodd" clip-rule="evenodd" d="M40.5784 24.0005H48.1865V21.3376H40.5784V24.0005Z" fill="#E8B714"/>
<path fill-rule="evenodd" clip-rule="evenodd" d="M17.7537 31.9888H22.8258V29.3259H17.7537V31.9888Z" fill="#E8B714"/>
<path fill-rule="evenodd" clip-rule="evenodd" d="M15.2183 29.3257H17.7543V26.6628H15.2183V29.3257Z" fill="#E8B714"/>
<path fill-rule="evenodd" clip-rule="evenodd" d="M12.6802 26.6627H15.2162V18.6741H12.6802V26.6627Z" fill="#E8B714"/>
<path fill-rule="evenodd" clip-rule="evenodd" d="M10.1472 18.6751H12.6833V2.69727H10.1472V18.6751Z" fill="#E8B714"/>
<path fill-rule="evenodd" clip-rule="evenodd" d="M15.2183 42.6404H22.8264V39.9775H15.2183V42.6404Z" fill="#E8B714"/>
<path fill-rule="evenodd" clip-rule="evenodd" d="M30.4312 42.6404H38.0393V39.9775H30.4312V42.6404Z" fill="#E8B714"/>
<path fill-rule="evenodd" clip-rule="evenodd" d="M12.6802 18.6751H15.2162V2.69727H12.6802V18.6751Z" fill="#FFD91D"/>
<path fill-rule="evenodd" clip-rule="evenodd" d="M15.2183 26.6638H17.7543V2.69727H15.2183V26.6638Z" fill="#FFD91D"/>
<path fill-rule="evenodd" clip-rule="evenodd" d="M17.7537 29.3267H20.2897V2.69727H17.7537V29.3267Z" fill="#FFD91D"/>
<path fill-rule="evenodd" clip-rule="evenodd" d="M15.2183 16.0111H17.7543V8.02246H15.2183V16.0111Z" fill="#FBFBFB"/>
<path fill-rule="evenodd" clip-rule="evenodd" d="M20.2891 29.3267H22.8251V2.69727H20.2891V29.3267Z" fill="#FFD91D"/>
<path fill-rule="evenodd" clip-rule="evenodd" d="M22.8271 31.9901H25.3632V2.69727H22.8271V31.9901Z" fill="#FFD91D"/>
<path fill-rule="evenodd" clip-rule="evenodd" d="M25.3601 29.3267H27.8967V2.69727H25.3601V29.3267Z" fill="#FFD91D"/>
<path fill-rule="evenodd" clip-rule="evenodd" d="M27.8982 42.6404H30.4343V39.9775H27.8982V42.6404Z" fill="#E8B714"/>
<path fill-rule="evenodd" clip-rule="evenodd" d="M22.8271 42.6404H25.3632V39.9775H22.8271V42.6404Z" fill="#E8B714"/>
<path fill-rule="evenodd" clip-rule="evenodd" d="M28.6772 45.9694H24.5804V45.3039H23.0207H22.5338H20.9741H20.4846H18.9249H18.438H16.8757H16.3888H14.3396V42.641H16.3888H16.8757H18.438H18.9249H20.4846H20.9741H22.5338H23.0207H24.5804V39.9778H28.6772V42.641H28.6788H30.4347H30.728H31.2149H32.7772H33.2641H34.8264H35.3133H36.8704H37.3625H39.4065V45.3039H37.3625H36.8704H35.3133H34.8264H33.2641H32.7772H31.2149H30.728H30.4347H28.6788H28.6772V45.9694Z" fill="#FFD91D"/>
<path fill-rule="evenodd" clip-rule="evenodd" d="M25.3601 39.9775H27.8967V29.3259H25.3601V39.9775Z" fill="#E8B714"/>
<path fill-rule="evenodd" clip-rule="evenodd" d="M27.8982 26.6638H30.4343V2.69727H27.8982V26.6638Z" fill="#FFD91D"/>
<path fill-rule="evenodd" clip-rule="evenodd" d="M30.4312 24.0009H32.9672V2.69727H30.4312V24.0009Z" fill="#FFD91D"/>
<path fill-rule="evenodd" clip-rule="evenodd" d="M32.9692 29.3263H35.5053V21.3376H32.9692V29.3263Z" fill="#E8B714"/>
<path fill-rule="evenodd" clip-rule="evenodd" d="M30.4312 29.327H32.9672V24.0012H30.4312V29.327Z" fill="#E8B714"/>
<path fill-rule="evenodd" clip-rule="evenodd" d="M27.8982 31.9886H30.4343V26.6628H27.8982V31.9886Z" fill="#E8B714"/>
<path fill-rule="evenodd" clip-rule="evenodd" d="M32.9692 21.338H35.5053V2.69727H32.9692V21.338Z" fill="#FFD91D"/>
<path fill-rule="evenodd" clip-rule="evenodd" d="M35.5046 26.6641H38.0407V16.012H35.5046V26.6641Z" fill="#E8B714"/>
<path fill-rule="evenodd" clip-rule="evenodd" d="M35.5046 16.0122H38.0407V2.69727H35.5046V16.0122Z" fill="#FFD91D"/>
<path fill-rule="evenodd" clip-rule="evenodd" d="M38.0403 18.6742H40.5764V13.3484H38.0403V18.6742Z" fill="#E8B714"/>
<path fill-rule="evenodd" clip-rule="evenodd" d="M17.7537 29.3263H20.2897V21.3376H17.7537V29.3263Z" fill="#E8B714"/>
<path fill-rule="evenodd" clip-rule="evenodd" d="M20.2891 29.327H22.8251V24.0012H20.2891V29.327Z" fill="#E8B714"/>
<path fill-rule="evenodd" clip-rule="evenodd" d="M22.8271 31.9886H25.3632V26.6628H22.8271V31.9886Z" fill="#E8B714"/>
<path fill-rule="evenodd" clip-rule="evenodd" d="M15.2183 26.6641H17.7543V16.012H15.2183V26.6641Z" fill="#E8B714"/>
<path fill-rule="evenodd" clip-rule="evenodd" d="M12.6802 18.6742H15.2162V13.3484H12.6802V18.6742Z" fill="#E8B714"/>
<path fill-rule="evenodd" clip-rule="evenodd" d="M30.4312 31.9888H35.5033V29.3259H30.4312V31.9888Z" fill="#E8B714"/>
<path fill-rule="evenodd" clip-rule="evenodd" d="M35.5046 29.3257H38.0407V26.6628H35.5046V29.3257Z" fill="#E8B714"/>
<path fill-rule="evenodd" clip-rule="evenodd" d="M38.0403 26.6627H40.5764V18.6741H38.0403V26.6627Z" fill="#E8B714"/>
<path fill-rule="evenodd" clip-rule="evenodd" d="M40.5784 18.6751H43.1144V2.69727H40.5784V18.6751Z" fill="#E8B714"/>
<path fill-rule="evenodd" clip-rule="evenodd" d="M12.6802 47.9659H40.5774V45.303H12.6802V47.9659Z" fill="#E8B714"/>
<path fill-rule="evenodd" clip-rule="evenodd" d="M12.6826 2.69657H40.5798V0.0336914H12.6826V2.69657Z" fill="#E8B714"/>
<path fill-rule="evenodd" clip-rule="evenodd" d="M12.6802 45.3037H15.2162V42.6409H12.6802V45.3037Z" fill="#E8B714"/>
<path fill-rule="evenodd" clip-rule="evenodd" d="M38.0403 45.3037H40.5764V42.6409H38.0403V45.3037Z" fill="#E8B714"/>
<path fill-rule="evenodd" clip-rule="evenodd" d="M22.8271 39.9767H25.3632V31.988H22.8271V39.9767Z" fill="#E8B714"/>
<path fill-rule="evenodd" clip-rule="evenodd" d="M27.8982 39.9767H30.4343V31.988H27.8982V39.9767Z" fill="#E8B714"/>
<path fill-rule="evenodd" clip-rule="evenodd" d="M17.7537 21.3377H20.2897V16.012H17.7537V21.3377Z" fill="#FBFBFB"/>
<path fill-rule="evenodd" clip-rule="evenodd" d="M20.2891 24.0005H22.8251V21.3376H20.2891V24.0005Z" fill="#FBFBFB"/>
<path fill-rule="evenodd" clip-rule="evenodd" d="M15.2183 5.36015H27.8285V2.69727H15.2183V5.36015Z" fill="#FBFBFB"/>
</svg>
