<svg width="150" height="87" viewBox="0 0 150 87" fill="none" xmlns="http://www.w3.org/2000/svg">
<path d="M91.6378 80.876H89.5479V83.7433H91.6378V80.876Z" fill="#AEAEAE"/>
<path d="M89.5411 83.7432H87.4512V86.6105H89.5411V83.7432Z" fill="#AEAEAE"/>
<path d="M89.5411 80.876H87.4512V83.7433H89.5411V80.876Z" fill="#AEAEAE"/>
<path d="M89.5411 78H87.4512V80.8673H89.5411V78Z" fill="#AEAEAE"/>
<path d="M87.4513 83.7432H85.3613V86.6105H87.4513V83.7432Z" fill="#AEAEAE"/>
<path d="M87.4513 80.876H85.3613V83.7433H87.4513V80.876Z" fill="#AEAEAE"/>
<path d="M87.4513 78H85.3613V80.8673H87.4513V78Z" fill="#AEAEAE"/>
<path d="M85.3614 83.7432H83.2715V86.6105H85.3614V83.7432Z" fill="#AEAEAE"/>
<path d="M85.3614 80.876H83.2715V83.7433H85.3614V80.876Z" fill="#AEAEAE"/>
<path d="M85.3614 78H83.2715V80.8673H85.3614V78Z" fill="#AEAEAE"/>
<path d="M83.2716 83.7432H81.1816V86.6105H83.2716V83.7432Z" fill="#AEAEAE"/>
<path d="M83.2716 80.876H81.1816V83.7433H83.2716V80.876Z" fill="#AEAEAE"/>
<path d="M83.2716 78H81.1816V80.8673H83.2716V78Z" fill="#AEAEAE"/>
<path d="M81.1817 83.7432H79.0918V86.6105H81.1817V83.7432Z" fill="#AEAEAE"/>
<path d="M81.1817 80.876H79.0918V83.7433H81.1817V80.876Z" fill="#AEAEAE"/>
<path d="M81.1817 78H79.0918V80.8673H81.1817V78Z" fill="#AEAEAE"/>
<path d="M79.0919 83.7432H77.002V86.6105H79.0919V83.7432Z" fill="#AEAEAE"/>
<path d="M79.0919 80.876H77.002V83.7433H79.0919V80.876Z" fill="#AEAEAE"/>
<path d="M79.0919 78H77.002V80.8673H79.0919V78Z" fill="#AEAEAE"/>
<path d="M77.002 83.7432H74.9121V86.6105H77.002V83.7432Z" fill="#AEAEAE"/>
<path d="M77.002 80.876H74.9121V83.7433H77.002V80.876Z" fill="#AEAEAE"/>
<path d="M77.002 78H74.9121V80.8673H77.002V78Z" fill="#AEAEAE"/>
<path d="M74.9112 83.7432H72.8213V86.6105H74.9112V83.7432Z" fill="#AEAEAE"/>
<path d="M74.9112 80.876H72.8213V83.7433H74.9112V80.876Z" fill="#AEAEAE"/>
<path d="M74.9112 78H72.8213V80.8673H74.9112V78Z" fill="#AEAEAE"/>
<path d="M72.8155 83.7432H70.7256V86.6105H72.8155V83.7432Z" fill="#AEAEAE"/>
<path d="M72.8155 80.876H70.7256V83.7433H72.8155V80.876Z" fill="#AEAEAE"/>
<path d="M72.8155 78H70.7256V80.8673H72.8155V78Z" fill="#AEAEAE"/>
<path d="M70.7257 83.7432H68.6357V86.6105H70.7257V83.7432Z" fill="#AEAEAE"/>
<path d="M70.7257 80.876H68.6357V83.7433H70.7257V80.876Z" fill="#AEAEAE"/>
<path d="M70.7257 78H68.6357V80.8673H70.7257V78Z" fill="#AEAEAE"/>
<path d="M68.6358 83.7432H66.5459V86.6105H68.6358V83.7432Z" fill="#AEAEAE"/>
<path d="M68.6358 80.876H66.5459V83.7433H68.6358V80.876Z" fill="#AEAEAE"/>
<path d="M68.6358 78H66.5459V80.8673H68.6358V78Z" fill="#AEAEAE"/>
<path d="M66.546 83.7432H64.4561V86.6105H66.546V83.7432Z" fill="#AEAEAE"/>
<path d="M66.546 80.876H64.4561V83.7433H66.546V80.876Z" fill="#AEAEAE"/>
<path d="M66.546 78H64.4561V80.8673H66.546V78Z" fill="#AEAEAE"/>
<path d="M64.4561 83.7432H62.3662V86.6105H64.4561V83.7432Z" fill="#AEAEAE"/>
<path d="M64.4561 80.876H62.3662V83.7433H64.4561V80.876Z" fill="#AEAEAE"/>
<path d="M64.4561 78H62.3662V80.8673H64.4561V78Z" fill="#AEAEAE"/>
<path d="M62.3663 83.7432H60.2764V86.6105H62.3663V83.7432Z" fill="#AEAEAE"/>
<path d="M62.3663 80.876H60.2764V83.7433H62.3663V80.876Z" fill="#AEAEAE"/>
<path d="M62.3663 78H60.2764V80.8673H62.3663V78Z" fill="#AEAEAE"/>
<path d="M60.2755 83.7432H58.1855V86.6105H60.2755V83.7432Z" fill="#AEAEAE"/>
<path d="M60.2755 80.876H58.1855V83.7433H60.2755V80.876Z" fill="#AEAEAE"/>
<path d="M60.2755 78H58.1855V80.8673H60.2755V78Z" fill="#AEAEAE"/>
<path d="M58.1866 83.7432H56.0967V86.6105H58.1866V83.7432Z" fill="#AEAEAE"/>
<path d="M58.1866 80.876H56.0967V83.7433H58.1866V80.876Z" fill="#AEAEAE"/>
<path d="M58.1866 78H56.0967V80.8673H58.1866V78Z" fill="#AEAEAE"/>
<path d="M56.0899 80.876H54V83.7433H56.0899V80.876Z" fill="#AEAEAE"/>
<path d="M87.7853 11.0148V7.3829H84.0939V3.69141H80.4619V7.3829V11.0148H84.0939V14.7063V18.4574H87.7853V22.1489H91.4768V18.4574V14.7063V11.0148H87.7853Z" fill="#381800"/>
<path d="M87.7862 18.4575H84.0947V22.149V25.8405V29.532H87.7862V25.8405H91.4777V22.149H87.7862V18.4575Z" fill="#925F2D"/>
<path d="M80.4619 59.0044V62.6959H84.0939H87.7853V59.0044H84.0939H80.4619Z" fill="#AA7536"/>
<path d="M80.4619 44.2382V47.9297V51.6212V55.3127V59.0042H84.0939H87.7853V55.3127V51.6212V47.9297V44.2382V40.6063V36.9148H84.0939H80.4619V40.6063V44.2382Z" fill="#003C56"/>
<path d="M84.1534 29.532H80.4619V33.2235H84.1534V29.532Z" fill="#925F2D"/>
<path d="M84.0944 22.1489V18.4574V14.7064H80.4029H76.7114V11.0149H73.0199H69.3284H65.6965H62.005V14.7064H58.3135V18.4574V22.1489V25.8404V29.5319H62.005V33.2234H65.6965V36.9149H69.388H73.0795V33.2234H76.7709H80.4624V29.5319H84.1539V25.8404V22.1489H84.0944ZM69.388 18.4574H73.0795V22.1489H69.388V18.4574ZM62.005 18.4574H65.6965V22.1489H62.005V18.4574ZM73.0795 29.5319H69.388H65.6965V25.8404H69.388H73.0795H76.7709V29.5319H73.0795Z" fill="#AA7536"/>
<path d="M76.7706 81.1533H73.0791V84.8448H76.7706H80.4621H84.094V81.1533H80.4621H76.7706Z" fill="#381800"/>
<path d="M76.7708 62.6958H73.0794H69.3879H65.6964H62.0049V66.3873V70.0788V73.7107V77.4618V81.1533H65.6964H69.3879V77.4618V73.7107V70.0788V66.3873H73.0794H76.7708V70.0788V73.7107V77.4618V81.1533H80.4623H84.0943V77.4618V73.7107V70.0788V66.3873V62.6958H80.4623H76.7708Z" fill="#00517B"/>
<path d="M80.462 0H76.7705V3.69149H80.462V0Z" fill="#381800"/>
<path d="M73.0791 36.9148V40.6063V44.2382H76.7706V40.6063H80.4621V36.9148H76.7706H73.0791Z" fill="#E2DFCF"/>
<path d="M73.0791 33.2236V36.9151H76.7706H80.4621V33.2236H76.7706H73.0791Z" fill="#925F2D"/>
<path d="M73.0793 25.8403H69.3878H65.6963V29.5318H69.3878H73.0793H76.7707V25.8403H73.0793Z" fill="#925F2D"/>
<path d="M73.0792 18.4575H69.3877V22.149H73.0792V18.4575Z" fill="#381800"/>
<path d="M69.3879 62.6958H73.0794H76.7708H80.4623V59.0044V55.3129V51.6214V47.9299V44.2384V40.6064H76.7708V44.2384H73.0794V47.9299V51.6214V55.3129H69.3879V51.6214V47.9299V44.2384H65.6964V40.6064H62.0049V44.2384V47.9299V51.6214V55.3129V59.0044V62.6958H65.6964H69.3879Z" fill="#004868"/>
<path d="M69.3878 40.6064H65.6963V44.2979H69.3878V40.6064Z" fill="#E2DFCF"/>
<path d="M69.3878 40.6063V44.2382V47.9297V51.6212V55.3127H73.0793V51.6212V47.9297V44.2382V40.6063V36.9148H69.3878H65.6963V40.6063H69.3878Z" fill="#A0220A"/>
<path d="M62.005 81.1533H58.3135V84.8448H62.005H65.6965H69.388V81.1533H65.6965H62.005Z" fill="#381800"/>
<path d="M65.6964 36.9148H62.0049V40.6063H65.6964V36.9148Z" fill="#E2DFCF"/>
<path d="M65.6964 18.4575H62.0049V22.149H65.6964V18.4575Z" fill="#381800"/>
<path d="M65.6964 7.38306H62.0049V11.0745H65.6964V7.38306Z" fill="#381800"/>
<path d="M62.005 59.0044H58.3135V62.6959H62.005V59.0044Z" fill="#AA7536"/>
<path d="M62.005 55.3127V51.6212V47.9297V44.2382V40.6063V36.9148H58.3135V40.6063V44.2382V47.9297V51.6212V55.3127V59.0042H62.005V55.3127Z" fill="#003C56"/>
<path d="M62.005 11.0149H58.3135V14.7064H62.005V11.0149Z" fill="#381800"/>
<path d="M58.3135 18.4576V14.7065H54.6221V18.4576V22.1491V25.8406H58.3135V22.1491V18.4576Z" fill="#381800"/>
<path d="M58.3135 11.0149H62.005V7.38298H65.6965V11.0149H69.388H73.0795H76.771V14.7064H80.4625H84.0945V11.0149H80.4625V7.38298V3.69149H76.771V0H73.0795H69.388H65.6965H62.005V3.69149H58.3135V7.38298H54.6221V11.0149V14.7064H58.3135V11.0149Z" fill="#542700"/>
<path d="M147.591 80.876H145.501V83.7433H147.591V80.876Z" fill="#AEAEAE"/>
<path d="M145.494 83.7432H143.404V86.6105H145.494V83.7432Z" fill="#AEAEAE"/>
<path d="M145.494 80.876H143.404V83.7433H145.494V80.876Z" fill="#AEAEAE"/>
<path d="M145.494 78H143.404V80.8673H145.494V78Z" fill="#AEAEAE"/>
<path d="M143.404 83.7432H141.314V86.6105H143.404V83.7432Z" fill="#AEAEAE"/>
<path d="M143.404 80.876H141.314V83.7433H143.404V80.876Z" fill="#AEAEAE"/>
<path d="M143.404 78H141.314V80.8673H143.404V78Z" fill="#AEAEAE"/>
<path d="M141.315 83.7432H139.225V86.6105H141.315V83.7432Z" fill="#AEAEAE"/>
<path d="M141.315 80.876H139.225V83.7433H141.315V80.876Z" fill="#AEAEAE"/>
<path d="M141.315 78H139.225V80.8673H141.315V78Z" fill="#AEAEAE"/>
<path d="M139.225 83.7432H137.135V86.6105H139.225V83.7432Z" fill="#AEAEAE"/>
<path d="M139.225 80.876H137.135V83.7433H139.225V80.876Z" fill="#AEAEAE"/>
<path d="M139.225 78H137.135V80.8673H139.225V78Z" fill="#AEAEAE"/>
<path d="M137.135 83.7432H135.045V86.6105H137.135V83.7432Z" fill="#AEAEAE"/>
<path d="M137.135 80.876H135.045V83.7433H137.135V80.876Z" fill="#AEAEAE"/>
<path d="M137.135 78H135.045V80.8673H137.135V78Z" fill="#AEAEAE"/>
<path d="M135.045 83.7432H132.955V86.6105H135.045V83.7432Z" fill="#AEAEAE"/>
<path d="M135.045 80.876H132.955V83.7433H135.045V80.876Z" fill="#AEAEAE"/>
<path d="M135.045 78H132.955V80.8673H135.045V78Z" fill="#AEAEAE"/>
<path d="M132.955 83.7432H130.865V86.6105H132.955V83.7432Z" fill="#AEAEAE"/>
<path d="M132.955 80.876H130.865V83.7433H132.955V80.876Z" fill="#AEAEAE"/>
<path d="M132.955 78H130.865V80.8673H132.955V78Z" fill="#AEAEAE"/>
<path d="M130.864 83.7432H128.774V86.6105H130.864V83.7432Z" fill="#AEAEAE"/>
<path d="M130.864 80.876H128.774V83.7433H130.864V80.876Z" fill="#AEAEAE"/>
<path d="M130.864 78H128.774V80.8673H130.864V78Z" fill="#AEAEAE"/>
<path d="M128.769 83.7432H126.679V86.6105H128.769V83.7432Z" fill="#AEAEAE"/>
<path d="M128.769 80.876H126.679V83.7433H128.769V80.876Z" fill="#AEAEAE"/>
<path d="M128.769 78H126.679V80.8673H128.769V78Z" fill="#AEAEAE"/>
<path d="M126.679 83.7432H124.589V86.6105H126.679V83.7432Z" fill="#AEAEAE"/>
<path d="M126.679 80.876H124.589V83.7433H126.679V80.876Z" fill="#AEAEAE"/>
<path d="M126.679 78H124.589V80.8673H126.679V78Z" fill="#AEAEAE"/>
<path d="M124.589 83.7432H122.499V86.6105H124.589V83.7432Z" fill="#AEAEAE"/>
<path d="M124.589 80.876H122.499V83.7433H124.589V80.876Z" fill="#AEAEAE"/>
<path d="M124.589 78H122.499V80.8673H124.589V78Z" fill="#AEAEAE"/>
<path d="M122.499 83.7432H120.409V86.6105H122.499V83.7432Z" fill="#AEAEAE"/>
<path d="M122.499 80.876H120.409V83.7433H122.499V80.876Z" fill="#AEAEAE"/>
<path d="M122.499 78H120.409V80.8673H122.499V78Z" fill="#AEAEAE"/>
<path d="M120.409 83.7432H118.319V86.6105H120.409V83.7432Z" fill="#AEAEAE"/>
<path d="M120.409 80.876H118.319V83.7433H120.409V80.876Z" fill="#AEAEAE"/>
<path d="M120.409 78H118.319V80.8673H120.409V78Z" fill="#AEAEAE"/>
<path d="M118.319 83.7432H116.229V86.6105H118.319V83.7432Z" fill="#AEAEAE"/>
<path d="M118.319 80.876H116.229V83.7433H118.319V80.876Z" fill="#AEAEAE"/>
<path d="M118.319 78H116.229V80.8673H118.319V78Z" fill="#AEAEAE"/>
<path d="M116.229 83.7432H114.139V86.6105H116.229V83.7432Z" fill="#AEAEAE"/>
<path d="M116.229 80.876H114.139V83.7433H116.229V80.876Z" fill="#AEAEAE"/>
<path d="M116.229 78H114.139V80.8673H116.229V78Z" fill="#AEAEAE"/>
<path d="M114.14 83.7432H112.05V86.6105H114.14V83.7432Z" fill="#AEAEAE"/>
<path d="M114.14 80.876H112.05V83.7433H114.14V80.876Z" fill="#AEAEAE"/>
<path d="M114.14 78H112.05V80.8673H114.14V78Z" fill="#AEAEAE"/>
<path d="M112.043 80.876H109.953V83.7433H112.043V80.876Z" fill="#AEAEAE"/>
<path d="M149.99 28.8403H146.299V32.5318H149.99V28.8403Z" fill="#8063CE"/>
<path d="M149.99 25.1489H146.299V28.8404H149.99V25.1489Z" fill="#7C3396"/>
<path d="M149.99 21.5171H146.299V25.2086H149.99V21.5171Z" fill="#932C85"/>
<path d="M146.299 14.0747V17.8257V21.5172H149.931V17.8257V14.0747H146.299Z" fill="#B64558"/>
<path d="M142.606 47.2979V50.9894V54.6809V58.3129V62.0044H146.298V58.3129V54.6809V50.9894V47.2979V43.6064H142.606V47.2979Z" fill="#F4D9BF"/>
<path d="M142.606 36.2235V39.915H146.298V36.2235V32.532H142.606V36.2235Z" fill="#8063CE"/>
<path d="M142.606 28.8403H138.914V32.5318H135.223V36.2233V39.9148V43.6063H138.914V39.9148H142.606V36.2233V32.5318H146.297V28.8403H142.606Z" fill="#A782E0"/>
<path d="M146.298 21.5171H142.606V25.2086H146.298V21.5171Z" fill="#B24B9E"/>
<path d="M146.298 10.3833H142.606V14.0748H146.298V10.3833Z" fill="#B64558"/>
<path d="M142.606 54.6809H138.914V58.3129V62.0043V65.6958H142.606V62.0043V58.3129V54.6809Z" fill="#C19A4D"/>
<path d="M138.914 39.9148V43.6063V47.2978V50.9893H142.606V47.2978V43.6063H146.297V39.9148H142.606H138.914Z" fill="black"/>
<path d="M138.914 25.1489V28.8404H142.606H146.297V25.1489H142.606H138.914Z" fill="#9B4BB5"/>
<path d="M142.606 21.5171H138.914V25.2086H142.606V21.5171Z" fill="#EFCBB1"/>
<path d="M142.606 6.69141H138.914V10.3829H142.606V6.69141Z" fill="#B64558"/>
<path d="M138.914 80.5212H135.223V84.2127H138.914V80.5212Z" fill="#1D1E1D"/>
<path d="M138.914 76.8298H135.223V80.5213H138.914V76.8298Z" fill="#EFCBB1"/>
<path d="M138.914 58.3127V54.6808H135.223V50.9893H131.532H127.84H124.149V54.6808H120.457V58.3127V62.0042V65.6957V69.3872V73.0787H124.149V76.8297H127.84V73.0787V69.3872V65.6957V62.0042V58.3127H131.532V62.0042V65.6957V69.3872V73.0787H135.223V76.8297H138.914V73.0787V69.3872V65.6957V62.0042V58.3127Z" fill="#E2B759"/>
<path d="M138.914 50.9893H135.223V54.6808H138.914V50.9893Z" fill="#C19A4D"/>
<path d="M138.914 28.8403H135.223V32.5318H138.914V28.8403Z" fill="#EFCBB1"/>
<path d="M138.915 21.5173V17.8258H135.223V14.0748H131.532H127.84V10.3833H124.149H120.457V14.0748H116.766V17.8258V21.5173V25.2088V28.9003H120.457V32.5918H124.149H127.84V36.2833H131.532V32.5918H135.223V28.9003H138.915V25.1493V21.5173ZM131.532 17.8258V21.5173H127.84V17.8258H131.532ZM120.457 17.8258H124.149V21.5173H120.457V17.8258ZM127.84 28.8408V25.1493H131.532V28.8408H127.84Z" fill="#F4D9BF"/>
<path d="M138.914 3H135.223V6.6915H138.914V3Z" fill="#B64558"/>
<path d="M135.224 80.5212H131.532V84.2127H135.224V80.5212Z" fill="#DDDDDD"/>
<path d="M135.224 32.532H131.532V36.2235H135.224V32.532Z" fill="#EFCBB1"/>
<path d="M131.532 50.9896H135.223H138.914V47.2981V43.6066H135.223V39.9151V36.2236H131.532H127.84H124.149V39.9151H120.457V43.6066V47.2981V50.9896H124.149H127.84H131.532Z" fill="#1D1D1B"/>
<path d="M131.531 25.1489H127.84V28.8404H131.531V25.1489Z" fill="white"/>
<path d="M131.531 17.8257H127.84V21.5172H131.531V17.8257Z" fill="#193540"/>
<path d="M127.84 80.5212H124.148V84.2127H127.84V80.5212Z" fill="#1D1E1D"/>
<path d="M127.84 76.8298H124.148V80.5213H127.84V76.8298Z" fill="#EFCBB1"/>
<path d="M124.149 32.5318H120.457V28.8403H116.766H113.074V32.5318V36.2233H116.766V39.9148H120.457H124.149V36.2233H127.84V32.5318H124.149Z" fill="#8063CE"/>
<path d="M124.149 80.5212H120.457V84.2127H124.149V80.5212Z" fill="#DDDDDD"/>
<path d="M124.149 17.8257H120.457V21.5172H124.149V17.8257Z" fill="#193540"/>
<path d="M120.457 39.9148H116.766V43.6063H120.457V39.9148Z" fill="#A782E0"/>
<path d="M120.457 10.3833H116.766V14.0748H120.457V10.3833Z" fill="#B64558"/>
<path d="M113.074 39.9148V43.6063H109.383V47.2978V50.9893H113.074V47.2978H116.766V43.6063V39.9148H113.074Z" fill="#F4D9BF"/>
<path d="M116.766 36.2236H113.074V39.9151H116.766V36.2236Z" fill="#A782E0"/>
<path d="M116.766 25.1489H113.074V28.8404H116.766V25.1489Z" fill="#7C3396"/>
<path d="M116.766 21.5171H113.074V25.2086H116.766V21.5171Z" fill="#932C85"/>
<path d="M116.766 17.8257V14.0747H113.074V17.8257V21.5172H116.766V17.8257Z" fill="#B64558"/>
<path d="M113.074 32.5318V28.8403H109.383V32.5318V36.2233H113.074V32.5318Z" fill="#A782E0"/>
<path d="M113.074 25.1489H109.383V28.8404H113.074V25.1489Z" fill="#9B4BB5"/>
<path d="M113.074 21.5171H109.383V25.2086H113.074V21.5171Z" fill="#B24B9E"/>
<path d="M113.074 17.8255V14.0745H116.766V10.383H120.457H124.149H127.84V14.0745H131.532H135.223V17.8255H138.915V21.517H142.606H146.298V17.8255V14.0745H142.606V10.383H138.915V6.6915H135.223V3H131.532H127.84H124.149H120.457H116.766V6.6915H113.074V10.383H109.383V14.0745V17.8255V21.517H113.074V17.8255Z" fill="#E19BA3"/>
<path d="M109.383 39.9151V36.2236H105.691V39.9151H102V43.6066V47.2981H105.691H109.383V43.6066V39.9151Z" fill="#EFCBB1"/>
<path d="M37.6378 80.876H35.5479V83.7433H37.6378V80.876Z" fill="#AEAEAE"/>
<path d="M35.5411 83.7432H33.4512V86.6105H35.5411V83.7432Z" fill="#AEAEAE"/>
<path d="M35.5411 80.876H33.4512V83.7433H35.5411V80.876Z" fill="#AEAEAE"/>
<path d="M35.5411 78H33.4512V80.8673H35.5411V78Z" fill="#AEAEAE"/>
<path d="M33.4513 83.7432H31.3613V86.6105H33.4513V83.7432Z" fill="#AEAEAE"/>
<path d="M33.4513 80.876H31.3613V83.7433H33.4513V80.876Z" fill="#AEAEAE"/>
<path d="M33.4513 78H31.3613V80.8673H33.4513V78Z" fill="#AEAEAE"/>
<path d="M31.3614 83.7432H29.2715V86.6105H31.3614V83.7432Z" fill="#AEAEAE"/>
<path d="M31.3614 80.876H29.2715V83.7433H31.3614V80.876Z" fill="#AEAEAE"/>
<path d="M31.3614 78H29.2715V80.8673H31.3614V78Z" fill="#AEAEAE"/>
<path d="M29.2716 83.7432H27.1816V86.6105H29.2716V83.7432Z" fill="#AEAEAE"/>
<path d="M29.2716 80.876H27.1816V83.7433H29.2716V80.876Z" fill="#AEAEAE"/>
<path d="M29.2716 78H27.1816V80.8673H29.2716V78Z" fill="#AEAEAE"/>
<path d="M27.1817 83.7432H25.0918V86.6105H27.1817V83.7432Z" fill="#AEAEAE"/>
<path d="M27.1817 80.876H25.0918V83.7433H27.1817V80.876Z" fill="#AEAEAE"/>
<path d="M27.1817 78H25.0918V80.8673H27.1817V78Z" fill="#AEAEAE"/>
<path d="M25.0919 83.7432H23.002V86.6105H25.0919V83.7432Z" fill="#AEAEAE"/>
<path d="M25.0919 80.876H23.002V83.7433H25.0919V80.876Z" fill="#AEAEAE"/>
<path d="M25.0919 78H23.002V80.8673H25.0919V78Z" fill="#AEAEAE"/>
<path d="M23.002 83.7432H20.9121V86.6105H23.002V83.7432Z" fill="#AEAEAE"/>
<path d="M23.002 80.876H20.9121V83.7433H23.002V80.876Z" fill="#AEAEAE"/>
<path d="M23.002 78H20.9121V80.8673H23.002V78Z" fill="#AEAEAE"/>
<path d="M20.9112 83.7432H18.8213V86.6105H20.9112V83.7432Z" fill="#AEAEAE"/>
<path d="M20.9112 80.876H18.8213V83.7433H20.9112V80.876Z" fill="#AEAEAE"/>
<path d="M20.9112 78H18.8213V80.8673H20.9112V78Z" fill="#AEAEAE"/>
<path d="M18.8155 83.7432H16.7256V86.6105H18.8155V83.7432Z" fill="#AEAEAE"/>
<path d="M18.8155 80.876H16.7256V83.7433H18.8155V80.876Z" fill="#AEAEAE"/>
<path d="M18.8155 78H16.7256V80.8673H18.8155V78Z" fill="#AEAEAE"/>
<path d="M16.7257 83.7432H14.6357V86.6105H16.7257V83.7432Z" fill="#AEAEAE"/>
<path d="M16.7257 80.876H14.6357V83.7433H16.7257V80.876Z" fill="#AEAEAE"/>
<path d="M16.7257 78H14.6357V80.8673H16.7257V78Z" fill="#AEAEAE"/>
<path d="M14.6358 83.7432H12.5459V86.6105H14.6358V83.7432Z" fill="#AEAEAE"/>
<path d="M14.6358 80.876H12.5459V83.7433H14.6358V80.876Z" fill="#AEAEAE"/>
<path d="M14.6358 78H12.5459V80.8673H14.6358V78Z" fill="#AEAEAE"/>
<path d="M12.546 83.7432H10.4561V86.6105H12.546V83.7432Z" fill="#AEAEAE"/>
<path d="M12.546 80.876H10.4561V83.7433H12.546V80.876Z" fill="#AEAEAE"/>
<path d="M12.546 78H10.4561V80.8673H12.546V78Z" fill="#AEAEAE"/>
<path d="M10.4561 83.7432H8.36621V86.6105H10.4561V83.7432Z" fill="#AEAEAE"/>
<path d="M10.4561 80.876H8.36621V83.7433H10.4561V80.876Z" fill="#AEAEAE"/>
<path d="M10.4561 78H8.36621V80.8673H10.4561V78Z" fill="#AEAEAE"/>
<path d="M8.36629 83.7432H6.27637V86.6105H8.36629V83.7432Z" fill="#AEAEAE"/>
<path d="M8.36629 80.876H6.27637V83.7433H8.36629V80.876Z" fill="#AEAEAE"/>
<path d="M8.36629 78H6.27637V80.8673H8.36629V78Z" fill="#AEAEAE"/>
<path d="M6.27547 83.7432H4.18555V86.6105H6.27547V83.7432Z" fill="#AEAEAE"/>
<path d="M6.27547 80.876H4.18555V83.7433H6.27547V80.876Z" fill="#AEAEAE"/>
<path d="M6.27547 78H4.18555V80.8673H6.27547V78Z" fill="#AEAEAE"/>
<path d="M4.18661 83.7432H2.09668V86.6105H4.18661V83.7432Z" fill="#AEAEAE"/>
<path d="M4.18661 80.876H2.09668V83.7433H4.18661V80.876Z" fill="#AEAEAE"/>
<path d="M4.18661 78H2.09668V80.8673H4.18661V78Z" fill="#AEAEAE"/>
<path d="M2.08993 80.876H0V83.7433H2.08993V80.876Z" fill="#AEAEAE"/>
<path d="M35.4737 21.4575H31.7822V25.149V28.8405H35.4737V25.149H39.1652V21.4575H35.4737Z" fill="#EFCBB1"/>
<path d="M31.7822 17.766V21.4575H35.4737V17.766V14.0745V10.3831H31.7822V14.0745V17.766Z" fill="#585E60"/>
<path d="M28.1494 58.3127V62.0042H31.7814H35.4728V58.3127H31.7814H28.1494Z" fill="#F4D9BF"/>
<path d="M28.1494 43.6066V47.2386V50.9301V54.6215V58.313H31.7814H35.4728V54.6215V50.9301V47.2386V43.6066V39.9151V36.2236H31.7814H28.1494V39.9151V43.6066Z" fill="#585E60"/>
<path d="M31.8409 28.8406H28.1494V32.5321H31.8409V28.8406Z" fill="#EFCBB1"/>
<path d="M31.7809 21.4573H28.0894V17.7658V14.0147V10.3232H24.3979H20.7064H17.0149H13.383H9.6915H6V14.0147V17.7658V21.4573V25.1487V28.8402H9.6915V32.5317H13.383H17.0745H20.766H24.4575H28.1489V28.8402H31.8404V25.1487V21.4573H31.7809ZM17.0745 17.7658H20.766V21.4573H17.0745V17.7658ZM9.6915 17.7658H13.383V21.4573H9.6915V17.7658ZM17.0745 28.8402H13.383V25.1487H17.0745H20.766V28.8402H17.0745Z" fill="#F4D9BF"/>
<path d="M28.1494 14.0745V17.766V21.4575H31.7814V17.766V14.0745V10.3831H28.1494V14.0745Z" fill="#747B7F"/>
<path d="M31.8409 6.69165H28.1494V10.3831H31.8409V6.69165Z" fill="#585E60"/>
<path d="M24.459 80.4617H20.7676V84.1532H24.459H28.1505H31.7825V80.4617H28.1505H24.459Z" fill="#1D1D1B"/>
<path d="M24.4583 62.0042H20.7669H17.0754H13.3839H9.69238V65.6956V69.3871V73.0786V76.7701V80.4616H13.3839H17.0754V76.7701V73.0786V69.3871V65.6956H20.7669H24.4583V69.3871V73.0786V76.7701V80.4616H28.1498H31.7818V76.7701V73.0786V69.3871V65.6956V62.0042H28.1498H24.4583Z" fill="#00517B"/>
<path d="M28.1495 32.532H24.458V36.2235H28.1495V32.532Z" fill="#585E60"/>
<path d="M28.1495 3H24.458V6.69148H28.1495V3Z" fill="#585E60"/>
<path d="M24.4583 32.532H20.7669H17.0754H13.3839V36.2235H9.69238V39.915V43.6065V47.2384V50.9299V54.6214V58.3129V62.0044H13.3839H17.0754H20.7669H24.4583H28.1498V58.3129V54.6214V50.9299V47.2384V43.6065V39.915V36.2235H24.4583V32.532Z" fill="#747B7F"/>
<path d="M17.0753 25.1489H13.3838V28.8404H17.0753H20.7668V25.1489H17.0753Z" fill="#EFCBB1"/>
<path d="M20.7667 17.7661H17.0752V21.4576H20.7667V17.7661Z" fill="#193540"/>
<path d="M9.6915 80.4617H6V84.1532H9.6915H13.383H17.0745V80.4617H13.383H9.6915Z" fill="#1D1D1B"/>
<path d="M13.3839 17.7661H9.69238V21.4576H13.3839V17.7661Z" fill="#193540"/>
<path d="M13.383 10.3832H17.0745H20.766H24.4574H28.1489V6.69172H24.4574V3.00024H20.766H17.0745H13.383H9.6915H6V6.69172V10.3832H9.6915H13.383Z" fill="#747B7F"/>
<path d="M9.6915 58.3127H6V62.0042H9.6915V58.3127Z" fill="#F4D9BF"/>
<path d="M9.6915 54.6215V50.9301V47.2386V43.6066V39.9151V36.2236H6V39.9151V43.6066V47.2386V50.9301V54.6215V58.313H9.6915V54.6215Z" fill="#585E60"/>
</svg>
