<svg width="24" height="20" viewBox="0 0 24 20" fill="none" xmlns="http://www.w3.org/2000/svg">
<path d="M5.2943 0H2.82373V2.33333H5.2943V0Z" fill="#F92E2E"/>
<path d="M8.11746 0H5.29395V2.33333H8.11746V0Z" fill="#F92E2E"/>
<path d="M10.2353 0H8.11768V2.33333H10.2353V0Z" fill="#F92E2E"/>
<path d="M2.82351 2.33331H0V4.99998H2.82351V2.33331Z" fill="#F92E2E"/>
<path d="M5.2943 2.33331H2.82373V4.99998H5.2943V2.33331Z" fill="#F92E2E"/>
<path d="M10.2353 2.33331H8.11768V4.99998H10.2353V2.33331Z" fill="#F92E2E"/>
<path d="M13.4118 2.33331H10.2354V4.99998H13.4118V2.33331Z" fill="#F92E2E"/>
<path d="M15.8827 2.33331H13.4121V4.99998H15.8827V2.33331Z" fill="#F92E2E"/>
<path d="M18.7053 2.33331H15.8818V4.99998H18.7053V2.33331Z" fill="#F92E2E"/>
<path d="M21.1766 2.33331H18.7061V4.99998H21.1766V2.33331Z" fill="#F92E2E"/>
<path d="M23.9998 2.33331H21.1763V4.99998H23.9998V2.33331Z" fill="#F92E2E"/>
<path d="M2.82351 5H0V7.33333H2.82351V5Z" fill="#F92E2E"/>
<path d="M8.11746 5H5.29395V7.33333H8.11746V5Z" fill="#F92E2E"/>
<path d="M10.2353 5H8.11768V7.33333H10.2353V5Z" fill="#F92E2E"/>
<path d="M13.4118 5H10.2354V7.33333H13.4118V5Z" fill="#F92E2E"/>
<path d="M15.8827 5H13.4121V7.33333H15.8827V5Z" fill="#F92E2E"/>
<path d="M18.7053 5H15.8818V7.33333H18.7053V5Z" fill="#F92E2E"/>
<path d="M21.1766 5H18.7061V7.33333H21.1766V5Z" fill="#F92E2E"/>
<path d="M23.9998 5H21.1763V7.33333H23.9998V5Z" fill="#F92E2E"/>
<path d="M2.82351 7.33331H0V10.3333H2.82351V7.33331Z" fill="#F92E2E"/>
<path d="M5.2943 7.33331H2.82373V10.3333H5.2943V7.33331Z" fill="#F92E2E"/>
<path d="M8.11746 7.33331H5.29395V10.3333H8.11746V7.33331Z" fill="#F92E2E"/>
<path d="M10.2353 7.33331H8.11768V10.3333H10.2353V7.33331Z" fill="#F92E2E"/>
<path d="M13.4118 7.33331H10.2354V10.3333H13.4118V7.33331Z" fill="#F92E2E"/>
<path d="M15.8827 7.33331H13.4121V10.3333H15.8827V7.33331Z" fill="#F92E2E"/>
<path d="M18.7053 7.33331H15.8818V10.3333H18.7053V7.33331Z" fill="#F92E2E"/>
<path d="M21.1766 7.33331H18.7061V10.3333H21.1766V7.33331Z" fill="#F92E2E"/>
<path d="M23.9998 7.33331H21.1763V10.3333H23.9998V7.33331Z" fill="#F92E2E"/>
<path d="M5.2943 10.3333H2.82373V12.3333H5.2943V10.3333Z" fill="#F92E2E"/>
<path d="M8.11746 10.3333H5.29395V12.3333H8.11746V10.3333Z" fill="#F92E2E"/>
<path d="M10.2353 10.3333H8.11768V12.3333H10.2353V10.3333Z" fill="#F92E2E"/>
<path d="M13.4118 10.3333H10.2354V12.3333H13.4118V10.3333Z" fill="#F92E2E"/>
<path d="M15.8827 10.3333H13.4121V12.3333H15.8827V10.3333Z" fill="#F92E2E"/>
<path d="M18.7053 10.3333H15.8818V12.3333H18.7053V10.3333Z" fill="#F92E2E"/>
<path d="M21.1766 10.3333H18.7061V12.3333H21.1766V10.3333Z" fill="#F92E2E"/>
<path d="M8.11746 12.3333H5.29395V15H8.11746V12.3333Z" fill="#F92E2E"/>
<path d="M10.2353 12.3333H8.11768V15H10.2353V12.3333Z" fill="#F92E2E"/>
<path d="M13.4118 12.3333H10.2354V15H13.4118V12.3333Z" fill="#F92E2E"/>
<path d="M15.8827 12.3333H13.4121V15H15.8827V12.3333Z" fill="#F92E2E"/>
<path d="M10.2353 15H8.11768V17.3333H10.2353V15Z" fill="#F92E2E"/>
<path d="M13.4118 15H10.2354V17.3333H13.4118V15Z" fill="#F92E2E"/>
<path d="M13.4118 17.3333H10.2354V20H13.4118V17.3333Z" fill="#F92E2E"/>
<path d="M15.8827 15H13.4121V17.3333H15.8827V15Z" fill="#F92E2E"/>
<path d="M18.7053 12.3333H15.8818V15H18.7053V12.3333Z" fill="#F92E2E"/>
<path d="M15.8827 0H13.4121V2.33333H15.8827V0Z" fill="#F92E2E"/>
<path d="M18.7053 0H15.8818V2.33333H18.7053V0Z" fill="#F92E2E"/>
<path d="M21.1766 0H18.7061V2.33333H21.1766V0Z" fill="#F92E2E"/>
</svg>
